<?xml version="1.0" standalone="no"?>
<!DOCTYPE svg PUBLIC "-//W3C//DTD SVG 20010904//EN"
 "http://www.w3.org/TR/2001/REC-SVG-20010904/DTD/svg10.dtd">
<svg version="1.0" xmlns="http://www.w3.org/2000/svg"
 width="64.000000pt" height="64.000000pt" viewBox="0 0 64.000000 64.000000"
 preserveAspectRatio="xMidYMid meet">
<metadata>
Created by potrace 1.14, written by Peter Selinger 2001-2017
</metadata>
<g transform="translate(0.000000,64.000000) scale(0.100000,-0.100000)"
fill="#000000" stroke="none">
<path d="M478 583 c-36 -6 -35 -17 3 -55 34 -35 46 -30 51 22 3 37 -3 41 -54
33z"/>
<path d="M385 551 c-68 -31 -130 -95 -172 -176 l-38 -75 37 -36 37 -37 65 32
c77 38 147 104 182 173 14 28 24 51 22 52 -2 1 -16 10 -31 20 -15 9 -33 28
-39 42 -13 29 -12 29 -63 5z m19 -103 c20 -28 4 -58 -29 -58 -35 0 -52 36 -29
61 22 25 39 24 58 -3z"/>
<path d="M179 431 c-46 -15 -69 -32 -99 -73 -17 -23 -29 -43 -27 -45 2 -2 20
4 40 12 20 8 47 15 61 15 18 0 31 11 50 44 14 25 26 47 26 50 0 8 -18 6 -51
-3z"/>
<path d="M160 284 c0 -13 68 -79 75 -73 2 3 -13 23 -35 44 -22 22 -40 35 -40
29z"/>
<path d="M80 255 c-13 -14 -21 -27 -18 -30 2 -3 15 6 28 20 13 14 21 27 18 30
-2 3 -15 -6 -28 -20z"/>
<path d="M333 254 c-27 -16 -43 -33 -43 -45 0 -11 -7 -36 -15 -56 -8 -20 -13
-38 -11 -41 10 -9 76 40 94 71 22 36 38 97 25 97 -4 -1 -27 -12 -50 -26z"/>
<path d="M150 242 c0 -16 39 -44 50 -37 8 5 6 13 -6 26 -17 19 -44 26 -44 11z"/>
<path d="M80 195 c-13 -14 -21 -25 -17 -25 3 0 18 11 33 25 15 14 23 25 17 25
-5 0 -20 -11 -33 -25z"/>
<path d="M99 153 l-34 -38 38 34 c20 19 37 36 37 38 0 8 -8 0 -41 -34z"/>
<path d="M140 145 c-13 -14 -21 -27 -18 -30 2 -3 15 6 28 20 13 14 21 27 18
30 -2 3 -15 -6 -28 -20z"/>
<path d="M189 133 l-24 -28 28 24 c15 14 27 26 27 28 0 8 -8 1 -31 -24z"/>
</g>
</svg>
